<svg version="1.1" xmlns="http://www.w3.org/2000/svg" width="188" height="162">
<path d="M0 0 C62.04 0 124.08 0 188 0 C188 53.46 188 106.92 188 162 C125.96 162 63.92 162 0 162 C0 108.54 0 55.08 0 0 Z " fill="#F18882" transform="translate(0,0)"/>
<path d="M0 0 C31.02 0 62.04 0 94 0 C89.2255106 8.95216763 84.47015992 17.78530719 79.3125 26.5 C74.54882967 34.60430053 69.85653455 42.74285446 65.25 50.9375 C61.24270137 58.06138785 57.17908413 65.14323273 53.00976562 72.17333984 C49.01633552 78.92767943 45.13419145 85.74501874 41.25 92.5625 C35.66296462 102.36769223 30.02404339 112.13960335 24.31420898 121.87402344 C21.06093864 127.4314031 17.84885757 133.00987114 14.67578125 138.61328125 C14.31161102 139.25530487 13.9474408 139.89732849 13.57223511 140.55880737 C11.7888949 143.70319212 10.01040891 146.8501377 8.24023438 150.00195312 C7.60021484 151.13181641 6.96019531 152.26167969 6.30078125 153.42578125 C5.73528564 154.43036377 5.16979004 155.43494629 4.5871582 156.4699707 C3 159 3 159 0 162 C0 108.54 0 55.08 0 0 Z " fill="#FEFEFE" transform="translate(0,0)"/>
<path d="M0 0 C0.76166977 0.00222061 1.52333954 0.00444122 2.30809021 0.00672913 C3.16890701 0.00680466 4.02972382 0.00688019 4.91662598 0.00695801 C5.8520372 0.01211929 6.78744843 0.01728058 7.75120544 0.02259827 C8.70422043 0.02401321 9.65723541 0.02542816 10.63912964 0.02688599 C13.69605085 0.032503 16.75289996 0.04505836 19.80979919 0.05775452 C21.87685543 0.06276733 23.94391281 0.06733061 26.01097107 0.07142639 C31.08977507 0.08247795 36.16852489 0.09975397 41.24729919 0.12025452 C37.08443899 7.84328085 32.77565 15.46966421 28.37229919 23.05775452 C27.0423438 25.35562834 25.71276841 27.65371559 24.38401794 29.95228577 C24.04417374 30.54003784 23.70432953 31.12778992 23.35418701 31.73335266 C19.94377628 37.63647968 16.56622859 43.55820368 13.19035339 49.48112488 C7.36187012 59.70653102 1.47724503 69.89700279 -4.47047424 80.05360413 C-9.22607175 88.18680241 -13.89952034 96.36568469 -18.55897522 104.55421448 C-22.46496335 111.41543827 -26.40318192 118.25583436 -30.40504456 125.06166077 C-30.79066055 125.71756699 -31.17627655 126.37347321 -31.57357788 127.04925537 C-33.43448111 130.21194517 -35.29959078 133.37207617 -37.16993713 136.52919006 C-41.32025092 143.54917282 -41.32025092 143.54917282 -45.10035706 150.77259827 C-46.6810353 153.97505986 -48.48617233 156.38478912 -50.75270081 159.12025452 C-51.08270081 160.11025452 -51.41270081 161.10025452 -51.75270081 162.12025452 C-65.94270081 162.12025452 -80.13270081 162.12025452 -94.75270081 162.12025452 C-86.80731437 146.22948165 -86.80731437 146.22948165 -83.31520081 140.49525452 C-78.77652646 132.90654071 -74.3769608 125.24197104 -70.00270081 117.55775452 C-64.8834156 108.57128243 -59.72658697 99.60902077 -54.50270081 90.68275452 C-48.17666421 79.87140325 -41.9485864 69.00659968 -35.75270081 58.12025452 C-27.7363758 44.03534612 -19.63544631 30.00300874 -11.4455719 16.01820374 C-10.23090101 13.93886376 -9.02082259 11.85683845 -7.81373596 9.77308655 C-7.18128967 8.68237854 -6.54884338 7.59167053 -5.89723206 6.46791077 C-5.03061951 4.96949646 -5.03061951 4.96949646 -4.14649963 3.44081116 C-2.16923489 0.14883333 -2.16923489 0.14883333 0 0 Z " fill="#4678BE" transform="translate(95.75270080566406,-0.1202545166015625)"/>
<path d="M0 0 C14.19 0 28.38 0 43 0 C45.64 4.62 48.28 9.24 51 14 C55.06990944 20.5904199 55.06990944 20.5904199 59.21289062 27.13476562 C59.72142578 27.95783203 60.22996094 28.78089844 60.75390625 29.62890625 C61.21095947 30.35150635 61.6680127 31.07410645 62.13891602 31.81860352 C63.28963819 34.7337446 62.98275961 36.02763794 62 39 C60.79744881 41.33073968 59.56570867 43.55390897 58.21875 45.796875 C57.84520386 46.43111389 57.47165771 47.06535278 57.08679199 47.71881104 C55.89788258 49.73325196 54.69893218 51.74151185 53.5 53.75 C52.69338406 55.11551562 51.88738766 56.48139741 51.08203125 57.84765625 C45.19082995 67.80917005 45.19082995 67.80917005 44 69 C41.41360962 69.09507821 38.8540144 69.12556376 36.26733398 69.11352539 C35.05279541 69.11374443 35.05279541 69.11374443 33.8137207 69.1139679 C31.12448492 69.11326854 28.43531751 69.1054751 25.74609375 69.09765625 C23.88664284 69.09579215 22.02719144 69.09436821 20.16773987 69.09336853 C15.26370904 69.08954271 10.35970764 69.07971188 5.45568848 69.06866455 C0.45548908 69.05845181 -4.54471506 69.05387121 -9.54492188 69.04882812 C-19.36329421 69.03808967 -29.18164466 69.02101248 -39 69 C-38.09262894 64.8312878 -36.1244117 61.55608102 -33.9375 57.9375 C-33.5048584 57.21143555 -33.0722168 56.48537109 -32.62646484 55.73730469 C-31.64309697 54.08719513 -30.65759997 52.43835324 -29.67041016 50.79052734 C-26.47473193 45.45194182 -23.30008725 40.10084837 -20.125 34.75 C-19.78459686 34.17679016 -19.44419373 33.60358032 -19.09347534 33.01300049 C-12.60265085 22.07900293 -6.27482612 11.05938103 0 0 Z " fill="#545DAB" transform="translate(124,93)"/>
<path d="M0 0 C16.83 0 33.66 0 51 0 C51 53.46 51 106.92 51 162 C44.4 162 37.8 162 31 162 C34.96447763 153.7119977 39.60918546 146.13482472 44.7109375 138.50390625 C47.94986637 133.58747064 47.94986637 133.58747064 49.23828125 127.96875 C47.35562572 123.45512792 44.90194172 119.3906199 42.3125 115.25 C41.26692708 113.546875 40.22135417 111.84375 39.17578125 110.140625 C37.54079813 107.49336435 35.90502577 104.84660685 34.26708984 102.20117188 C33.71875488 101.30462891 33.17041992 100.40808594 32.60546875 99.484375 C32.1055542 98.67194336 31.60563965 97.85951172 31.09057617 97.02246094 C30 95 30 95 30 93 C16.47 93 2.94 93 -11 93 C-9.57181199 88.71543596 -8.48701477 85.8089992 -6.26953125 82.078125 C-5.72039062 81.14726074 -5.17125 80.21639648 -4.60546875 79.25732422 C-4.01378906 78.26490723 -3.42210937 77.27249023 -2.8125 76.25 C-2.2040625 75.21246582 -1.595625 74.17493164 -0.96875 73.10595703 C2.06793212 67.92859955 5.13192077 62.77058376 8.24836731 57.64099121 C9.66880209 55.29546075 11.07311026 52.94050935 12.4750061 50.5838623 C13.485707 48.89882918 14.51848314 47.22710082 15.55151367 45.55566406 C16.16357666 44.5240918 16.77563965 43.49251953 17.40625 42.4296875 C17.95603516 41.52460449 18.50582031 40.61952148 19.07226562 39.68701172 C20.31471738 36.08847909 19.53416869 34.41840258 18 31 C16.99269881 29.03440669 16.99269881 29.03440669 15.828125 27.30078125 C15.41369141 26.65399414 14.99925781 26.00720703 14.57226562 25.34082031 C14.13591797 24.67147461 13.69957031 24.00212891 13.25 23.3125 C8.41239211 15.74195779 4.01926719 8.03853437 0 0 Z " fill="#FEFEFE" transform="translate(137,0)"/>
<path d="M0 0 C2.09420236 2.71312733 3.9531285 5.47042748 5.70703125 8.4140625 C6.4640332 9.68056641 6.4640332 9.68056641 7.23632812 10.97265625 C7.75646484 11.84792969 8.27660156 12.72320312 8.8125 13.625 C9.32103516 14.47707031 9.82957031 15.32914063 10.35351562 16.20703125 C11.38174215 17.92986454 12.40534179 19.65546761 13.42431641 21.38378906 C14.50389704 23.17628768 15.61757664 24.94856207 16.75927734 26.70214844 C17.31695801 27.57129883 17.87463867 28.44044922 18.44921875 29.3359375 C18.96186279 30.11243652 19.47450684 30.88893555 20.00268555 31.68896484 C21.3028407 34.70176012 21.053574 35.9027394 20 39 C18.79744881 41.33073968 17.56570867 43.55390897 16.21875 45.796875 C15.84520386 46.43111389 15.47165771 47.06535278 15.08679199 47.71881104 C13.89788258 49.73325196 12.69893218 51.74151185 11.5 53.75 C10.69338406 55.11551562 9.88738766 56.48139741 9.08203125 57.84765625 C3.19082995 67.80917005 3.19082995 67.80917005 2 69 C-1.10251201 69.08874135 -4.1826812 69.11518455 -7.28515625 69.09765625 C-8.21597519 69.0962413 -9.14679413 69.09482635 -10.1058197 69.09336853 C-13.09141191 69.08775172 -16.07693029 69.0751964 -19.0625 69.0625 C-21.08137913 69.05748716 -23.10025943 69.05292388 -25.11914062 69.04882812 C-30.07945572 69.03777683 -35.03971532 69.02050095 -40 69 C-38.70067017 65.56352943 -37.20280452 62.44574889 -35.33984375 59.28125 C-34.80174072 58.36303467 -34.2636377 57.44481934 -33.70922852 56.4987793 C-33.12455811 55.50918213 -32.5398877 54.51958496 -31.9375 53.5 C-31.32769287 52.46206299 -30.71788574 51.42412598 -30.08959961 50.35473633 C-28.76633476 48.10247332 -27.44186743 45.85095047 -26.11621094 43.60009766 C-23.91394802 39.85763723 -21.72608954 36.10684631 -19.5390625 32.35546875 C-18.41390405 30.4277579 -17.28846199 28.50021299 -16.16287231 26.57275391 C-15.43984738 25.33400448 -14.7173972 24.09491937 -13.99557495 22.85546875 C-9.49391453 15.12909344 -4.86444238 7.504623 0 0 Z " fill="#EF5E8E" transform="translate(166,93)"/>
</svg>
